# xmcd CD database file
# Generated: Fri Dec 5 00:44:30 2003 by KSCD
# 
# Track frame offsets:
#       150
#       18933
#       33625
#       49670
#       64628
#       82834
#       98080
#       113635
#       128609
#       142353
#       155689
#       168799
#       185743
#       203629
#
# Disc length: 2929 seconds
#
# Revision: 3
# Processed by: cddbd v1.4PL0 Copyright (c) Steve Scherf et al.
# Submitted via: Kscd 1.3.3
#
DISCID=b50b6f0e
DTITLE=Nexus - Nii Kuum
DYEAR=2003
DGENRE=Dance
TTITLE0=Nii Kuum
TTITLE1=Ei Saa
TTITLE2=Suveöös
TTITLE3=Hingetu
TTITLE4=Paradiis
TTITLE5=Kas Tahad Saada
TTITLE6=Meile Meeldib
TTITLE7=Suveks Tantsime Talve
TTITLE8=Tantsijatar
TTITLE9=Elukool
TTITLE10=Lähedal
TTITLE11=Raudne Leedi
TTITLE12=Juulikuu Lumi (Nexus 2003 Mix)
TTITLE13=Paradiis (Elektro M Edition)
EXTD=
EXTT0=
EXTT1=
EXTT2=
EXTT3=
EXTT4=
EXTT5=
EXTT6=
EXTT7=
EXTT8=
EXTT9=
EXTT10=
EXTT11=
EXTT12=
EXTT13=
PLAYORDER=
